<?xml version="1.0" encoding="UTF-8" standalone="no"?>
<!DOCTYPE svg PUBLIC "-//W3C//DTD SVG 1.1//EN"
 "http://www.w3.org/Graphics/SVG/1.1/DTD/svg11.dtd">
<!-- Generated by graphviz version 2.38.0 (20140413.2041)
 -->
<!-- Title: controllers_diagram Pages: 1 -->
<svg width="476pt" height="381pt"
 viewBox="0.00 0.00 476.38 381.00" xmlns="http://www.w3.org/2000/svg" xmlns:xlink="http://www.w3.org/1999/xlink">
<g id="graph0" class="graph" transform="scale(1 1) rotate(0) translate(172.048 209.5)">
<title>controllers_diagram</title>
<polygon fill="white" stroke="none" points="-172.048,171.5 -172.048,-209.5 304.328,-209.5 304.328,171.5 -172.048,171.5"/>
<!-- _diagram_info -->
<g id="node1" class="node"><title>_diagram_info</title>
<text text-anchor="start" x="-104.212" y="-17.1" font-family="Times,serif" font-size="13.00">Controllers diagram</text>
<text text-anchor="start" x="-104.212" y="-4.1" font-family="Times,serif" font-size="13.00">Date: Feb 11 2015 &#45; 15:32</text>
<text text-anchor="start" x="-104.212" y="8.9" font-family="Times,serif" font-size="13.00">Migration version: 20150211182353</text>
<text text-anchor="start" x="-104.212" y="21.9" font-family="Times,serif" font-size="13.00">Generated by RailRoady 1.3.0</text>
<text text-anchor="start" x="-104.212" y="34.9" font-family="Times,serif" font-size="13.00">http://railroady.prestonlee.com</text>
</g>
<!-- ApplicationController -->
<g id="node2" class="node"><title>ApplicationController</title>
<path fill="none" stroke="black" d="M-99.8208,-113C-99.8208,-113 15.8208,-113 15.8208,-113 21.8208,-113 27.8208,-119 27.8208,-125 27.8208,-125 27.8208,-193 27.8208,-193 27.8208,-199 21.8208,-205 15.8208,-205 15.8208,-205 -99.8208,-205 -99.8208,-205 -105.821,-205 -111.821,-199 -111.821,-193 -111.821,-193 -111.821,-125 -111.821,-125 -111.821,-119 -105.821,-113 -99.8208,-113"/>
<text text-anchor="middle" x="-42" y="-189.8" font-family="Times,serif" font-size="14.00">ApplicationController</text>
<polyline fill="none" stroke="black" points="-111.821,-183 27.8208,-183 "/>
<polyline fill="none" stroke="black" points="-111.821,-159 27.8208,-159 "/>
<polyline fill="none" stroke="black" points="-111.821,-135 27.8208,-135 "/>
<text text-anchor="start" x="-103.821" y="-119.8" font-family="Times,serif" font-size="14.00">_layout</text>
</g>
<!-- EpisodesController -->
<g id="node3" class="node"><title>EpisodesController</title>
<path fill="none" stroke="black" d="M-156.048,167C-156.048,167 -55.9517,167 -55.9517,167 -49.9517,167 -43.9517,161 -43.9517,155 -43.9517,155 -43.9517,89 -43.9517,89 -43.9517,83 -49.9517,77 -55.9517,77 -55.9517,77 -156.048,77 -156.048,77 -162.048,77 -168.048,83 -168.048,89 -168.048,89 -168.048,155 -168.048,155 -168.048,161 -162.048,167 -156.048,167"/>
<text text-anchor="middle" x="-106" y="92.2" font-family="Times,serif" font-size="14.00">EpisodesController</text>
<polyline fill="none" stroke="black" points="-168.048,99 -43.9517,99 "/>
<text text-anchor="start" x="-160.048" y="114.2" font-family="Times,serif" font-size="14.00">update</text>
<polyline fill="none" stroke="black" points="-168.048,121 -43.9517,121 "/>
<polyline fill="none" stroke="black" points="-168.048,145 -43.9517,145 "/>
<text text-anchor="start" x="-160.048" y="160.2" font-family="Times,serif" font-size="14.00">_layout</text>
</g>
<!-- ListsController -->
<g id="node4" class="node"><title>ListsController</title>
<path fill="none" stroke="black" d="M67.6138,-57C67.6138,-57 144.386,-57 144.386,-57 150.386,-57 156.386,-63 156.386,-69 156.386,-69 156.386,-191 156.386,-191 156.386,-197 150.386,-203 144.386,-203 144.386,-203 67.6138,-203 67.6138,-203 61.6138,-203 55.6138,-197 55.6138,-191 55.6138,-191 55.6138,-69 55.6138,-69 55.6138,-63 61.6138,-57 67.6138,-57"/>
<text text-anchor="middle" x="106" y="-187.8" font-family="Times,serif" font-size="14.00">ListsController</text>
<polyline fill="none" stroke="black" points="55.6138,-181 156.386,-181 "/>
<text text-anchor="start" x="63.6138" y="-165.8" font-family="Times,serif" font-size="14.00">create</text>
<text text-anchor="start" x="63.6138" y="-151.8" font-family="Times,serif" font-size="14.00">index</text>
<text text-anchor="start" x="63.6138" y="-137.8" font-family="Times,serif" font-size="14.00">new</text>
<text text-anchor="start" x="63.6138" y="-123.8" font-family="Times,serif" font-size="14.00">show</text>
<polyline fill="none" stroke="black" points="55.6138,-117 156.386,-117 "/>
<polyline fill="none" stroke="black" points="55.6138,-93 156.386,-93 "/>
<text text-anchor="start" x="63.6138" y="-77.8" font-family="Times,serif" font-size="14.00">_layout</text>
<text text-anchor="start" x="63.6138" y="-63.8" font-family="Times,serif" font-size="14.00">list_params</text>
</g>
<!-- SeasonsController -->
<g id="node5" class="node"><title>SeasonsController</title>
<path fill="none" stroke="black" d="M193.672,-29C193.672,-29 288.328,-29 288.328,-29 294.328,-29 300.328,-35 300.328,-41 300.328,-41 300.328,-107 300.328,-107 300.328,-113 294.328,-119 288.328,-119 288.328,-119 193.672,-119 193.672,-119 187.672,-119 181.672,-113 181.672,-107 181.672,-107 181.672,-41 181.672,-41 181.672,-35 187.672,-29 193.672,-29"/>
<text text-anchor="middle" x="241" y="-103.8" font-family="Times,serif" font-size="14.00">SeasonsController</text>
<polyline fill="none" stroke="black" points="181.672,-97 300.328,-97 "/>
<text text-anchor="start" x="189.672" y="-81.8" font-family="Times,serif" font-size="14.00">update</text>
<polyline fill="none" stroke="black" points="181.672,-75 300.328,-75 "/>
<polyline fill="none" stroke="black" points="181.672,-51 300.328,-51 "/>
<text text-anchor="start" x="189.672" y="-35.8" font-family="Times,serif" font-size="14.00">_layout</text>
</g>
<!-- ShowsController -->
<g id="node6" class="node"><title>ShowsController</title>
<path fill="none" stroke="black" d="M137.555,125C137.555,125 224.445,125 224.445,125 230.445,125 236.445,119 236.445,113 236.445,113 236.445,19 236.445,19 236.445,13 230.445,7 224.445,7 224.445,7 137.555,7 137.555,7 131.555,7 125.555,13 125.555,19 125.555,19 125.555,113 125.555,113 125.555,119 131.555,125 137.555,125"/>
<text text-anchor="middle" x="181" y="22.2" font-family="Times,serif" font-size="14.00">ShowsController</text>
<polyline fill="none" stroke="black" points="125.555,29 236.445,29 "/>
<text text-anchor="start" x="133.555" y="44.2" font-family="Times,serif" font-size="14.00">index</text>
<text text-anchor="start" x="133.555" y="58.2" font-family="Times,serif" font-size="14.00">update</text>
<text text-anchor="start" x="133.555" y="72.2" font-family="Times,serif" font-size="14.00">welcome</text>
<polyline fill="none" stroke="black" points="125.555,79 236.445,79 "/>
<polyline fill="none" stroke="black" points="125.555,103 236.445,103 "/>
<text text-anchor="start" x="133.555" y="118.2" font-family="Times,serif" font-size="14.00">_layout</text>
</g>
</g>
</svg>
