<?xml version="1.0" encoding="UTF-8" standalone="no"?>
<!DOCTYPE svg PUBLIC "-//W3C//DTD SVG 1.1//EN"
 "http://www.w3.org/Graphics/SVG/1.1/DTD/svg11.dtd">
<!-- Generated by graphviz version 2.38.0 (20140413.2041)
 -->
<!-- Title: models_diagram Pages: 1 -->
<svg width="384pt" height="657pt"
 viewBox="0.00 0.00 383.67 657.00" xmlns="http://www.w3.org/2000/svg" xmlns:xlink="http://www.w3.org/1999/xlink">
<g id="graph0" class="graph" transform="scale(1 1) rotate(0) translate(4 653)">
<title>models_diagram</title>
<polygon fill="white" stroke="none" points="-4,4 -4,-653 379.669,-653 379.669,4 -4,4"/>
<!-- _diagram_info -->
<g id="node1" class="node"><title>_diagram_info</title>
<text text-anchor="start" x="8" y="-627.6" font-family="Times,serif" font-size="13.00">Models diagram</text>
<text text-anchor="start" x="8" y="-614.6" font-family="Times,serif" font-size="13.00">Date: Feb 11 2015 &#45; 15:32</text>
<text text-anchor="start" x="8" y="-601.6" font-family="Times,serif" font-size="13.00">Migration version: 20150211182353</text>
<text text-anchor="start" x="8" y="-588.6" font-family="Times,serif" font-size="13.00">Generated by RailRoady 1.3.0</text>
<text text-anchor="start" x="8" y="-575.6" font-family="Times,serif" font-size="13.00">http://railroady.prestonlee.com</text>
</g>
<!-- Episode -->
<g id="node2" class="node"><title>Episode</title>
<path fill="none" stroke="black" d="M180.475,-137.5C180.475,-137.5 273.948,-137.5 273.948,-137.5 279.948,-137.5 285.948,-143.5 285.948,-149.5 285.948,-149.5 285.948,-253.5 285.948,-253.5 285.948,-259.5 279.948,-265.5 273.948,-265.5 273.948,-265.5 180.475,-265.5 180.475,-265.5 174.475,-265.5 168.475,-259.5 168.475,-253.5 168.475,-253.5 168.475,-149.5 168.475,-149.5 168.475,-143.5 174.475,-137.5 180.475,-137.5"/>
<text text-anchor="middle" x="227.212" y="-250.3" font-family="Times,serif" font-size="14.00">Episode</text>
<polyline fill="none" stroke="black" points="168.475,-243.5 285.948,-243.5 "/>
<text text-anchor="start" x="176.475" y="-228.3" font-family="Times,serif" font-size="14.00">id :integer</text>
<text text-anchor="start" x="176.475" y="-214.3" font-family="Times,serif" font-size="14.00">name :string</text>
<text text-anchor="start" x="176.475" y="-200.3" font-family="Times,serif" font-size="14.00">number :integer</text>
<text text-anchor="start" x="176.475" y="-186.3" font-family="Times,serif" font-size="14.00">length :integer</text>
<text text-anchor="start" x="176.475" y="-172.3" font-family="Times,serif" font-size="14.00">season_id :integer</text>
<text text-anchor="start" x="176.475" y="-158.3" font-family="Times,serif" font-size="14.00">show_id :integer</text>
<text text-anchor="start" x="176.475" y="-144.3" font-family="Times,serif" font-size="14.00">watched :boolean</text>
</g>
<!-- Viewed -->
<g id="node6" class="node"><title>Viewed</title>
<path fill="none" stroke="black" d="M264.755,-0.5C264.755,-0.5 363.669,-0.5 363.669,-0.5 369.669,-0.5 375.669,-6.5 375.669,-12.5 375.669,-12.5 375.669,-88.5 375.669,-88.5 375.669,-94.5 369.669,-100.5 363.669,-100.5 363.669,-100.5 264.755,-100.5 264.755,-100.5 258.755,-100.5 252.755,-94.5 252.755,-88.5 252.755,-88.5 252.755,-12.5 252.755,-12.5 252.755,-6.5 258.755,-0.5 264.755,-0.5"/>
<text text-anchor="middle" x="314.212" y="-85.3" font-family="Times,serif" font-size="14.00">Viewed</text>
<polyline fill="none" stroke="black" points="252.755,-78.5 375.669,-78.5 "/>
<text text-anchor="start" x="260.755" y="-63.3" font-family="Times,serif" font-size="14.00">id :integer</text>
<text text-anchor="start" x="260.755" y="-49.3" font-family="Times,serif" font-size="14.00">list_id :integer</text>
<text text-anchor="start" x="260.755" y="-35.3" font-family="Times,serif" font-size="14.00">episode_id :integer</text>
<text text-anchor="start" x="260.755" y="-21.3" font-family="Times,serif" font-size="14.00">viewed :boolean</text>
<text text-anchor="start" x="260.755" y="-7.3" font-family="Times,serif" font-size="14.00">show_id :integer</text>
</g>
<!-- Episode&#45;&gt;Viewed -->
<g id="edge1" class="edge"><title>Episode&#45;&gt;Viewed</title>
<path fill="none" stroke="#de0e33" d="M268.308,-130.116C272.29,-123.297 276.298,-116.433 280.199,-109.751"/>
<ellipse fill="none" stroke="#de0e33" cx="266.124" cy="-133.856" rx="4.00002" ry="4.00002"/>
<polygon fill="#de0e33" stroke="#de0e33" points="280.398,-109.411 289.326,-103.044 282.919,-105.093 285.44,-100.775 285.44,-100.775 285.44,-100.775 282.919,-105.093 281.554,-98.5063 280.398,-109.411 280.398,-109.411"/>
</g>
<!-- List -->
<g id="node3" class="node"><title>List</title>
<path fill="none" stroke="black" d="M236.706,-562.5C236.706,-562.5 345.717,-562.5 345.717,-562.5 351.717,-562.5 357.717,-568.5 357.717,-574.5 357.717,-574.5 357.717,-636.5 357.717,-636.5 357.717,-642.5 351.717,-648.5 345.717,-648.5 345.717,-648.5 236.706,-648.5 236.706,-648.5 230.706,-648.5 224.706,-642.5 224.706,-636.5 224.706,-636.5 224.706,-574.5 224.706,-574.5 224.706,-568.5 230.706,-562.5 236.706,-562.5"/>
<text text-anchor="middle" x="291.212" y="-633.3" font-family="Times,serif" font-size="14.00">List</text>
<polyline fill="none" stroke="black" points="224.706,-626.5 357.717,-626.5 "/>
<text text-anchor="start" x="232.706" y="-611.3" font-family="Times,serif" font-size="14.00">id :integer</text>
<text text-anchor="start" x="232.706" y="-597.3" font-family="Times,serif" font-size="14.00">name :string</text>
<text text-anchor="start" x="232.706" y="-583.3" font-family="Times,serif" font-size="14.00">created_at :datetime</text>
<text text-anchor="start" x="232.706" y="-569.3" font-family="Times,serif" font-size="14.00">updated_at :datetime</text>
</g>
<!-- Show -->
<g id="node5" class="node"><title>Show</title>
<path fill="none" stroke="black" d="M208.917,-425.5C208.917,-425.5 291.507,-425.5 291.507,-425.5 297.507,-425.5 303.507,-431.5 303.507,-437.5 303.507,-437.5 303.507,-513.5 303.507,-513.5 303.507,-519.5 297.507,-525.5 291.507,-525.5 291.507,-525.5 208.917,-525.5 208.917,-525.5 202.917,-525.5 196.917,-519.5 196.917,-513.5 196.917,-513.5 196.917,-437.5 196.917,-437.5 196.917,-431.5 202.917,-425.5 208.917,-425.5"/>
<text text-anchor="middle" x="250.212" y="-510.3" font-family="Times,serif" font-size="14.00">Show</text>
<polyline fill="none" stroke="black" points="196.917,-503.5 303.507,-503.5 "/>
<text text-anchor="start" x="204.917" y="-488.3" font-family="Times,serif" font-size="14.00">id :integer</text>
<text text-anchor="start" x="204.917" y="-474.3" font-family="Times,serif" font-size="14.00">name :string</text>
<text text-anchor="start" x="204.917" y="-460.3" font-family="Times,serif" font-size="14.00">artwork :string</text>
<text text-anchor="start" x="204.917" y="-446.3" font-family="Times,serif" font-size="14.00">description :text</text>
<text text-anchor="start" x="204.917" y="-432.3" font-family="Times,serif" font-size="14.00">list_id :integer</text>
</g>
<!-- List&#45;&gt;Show -->
<g id="edge2" class="edge"><title>List&#45;&gt;Show</title>
<path fill="none" stroke="#80619f" d="M274.545,-552.468C272.74,-546.831 270.893,-541.065 269.063,-535.354"/>
<polygon fill="#80619f" stroke="#80619f" points="274.623,-552.71 273.388,-563.606 276.148,-557.472 277.673,-562.233 277.673,-562.233 277.673,-562.233 276.148,-557.472 281.959,-560.861 274.623,-552.71 274.623,-552.71"/>
<polygon fill="#80619f" stroke="#80619f" points="269.063,-535.351 270.298,-524.455 267.537,-530.59 266.012,-525.828 266.012,-525.828 266.012,-525.828 267.537,-530.59 261.727,-527.201 269.063,-535.351 269.063,-535.351"/>
</g>
<!-- List&#45;&gt;Viewed -->
<g id="edge3" class="edge"><title>List&#45;&gt;Viewed</title>
<path fill="none" stroke="#8ff9a6" d="M306.058,-554.636C308.439,-545.194 310.634,-535.346 312.212,-526 341.014,-355.318 348.171,-309.262 331.212,-137 330.361,-128.355 329.036,-119.288 327.494,-110.424"/>
<ellipse fill="none" stroke="#8ff9a6" cx="305.031" cy="-558.581" rx="4.00001" ry="4.00001"/>
<polygon fill="#8ff9a6" stroke="#8ff9a6" points="327.484,-110.369 330.1,-99.72 326.579,-105.452 325.674,-100.535 325.674,-100.535 325.674,-100.535 326.579,-105.452 321.248,-101.349 327.484,-110.369 327.484,-110.369"/>
</g>
<!-- Season -->
<g id="node4" class="node"><title>Season</title>
<path fill="none" stroke="black" d="M184.037,-302.5C184.037,-302.5 274.386,-302.5 274.386,-302.5 280.386,-302.5 286.386,-308.5 286.386,-314.5 286.386,-314.5 286.386,-376.5 286.386,-376.5 286.386,-382.5 280.386,-388.5 274.386,-388.5 274.386,-388.5 184.037,-388.5 184.037,-388.5 178.037,-388.5 172.037,-382.5 172.037,-376.5 172.037,-376.5 172.037,-314.5 172.037,-314.5 172.037,-308.5 178.037,-302.5 184.037,-302.5"/>
<text text-anchor="middle" x="229.212" y="-373.3" font-family="Times,serif" font-size="14.00">Season</text>
<polyline fill="none" stroke="black" points="172.037,-366.5 286.386,-366.5 "/>
<text text-anchor="start" x="180.037" y="-351.3" font-family="Times,serif" font-size="14.00">id :integer</text>
<text text-anchor="start" x="180.037" y="-337.3" font-family="Times,serif" font-size="14.00">number :string</text>
<text text-anchor="start" x="180.037" y="-323.3" font-family="Times,serif" font-size="14.00">show_id :integer</text>
<text text-anchor="start" x="180.037" y="-309.3" font-family="Times,serif" font-size="14.00">watched :boolean</text>
</g>
<!-- Season&#45;&gt;Episode -->
<g id="edge4" class="edge"><title>Season&#45;&gt;Episode</title>
<path fill="none" stroke="#829505" d="M228.504,-294.275C228.421,-288.329 228.334,-282.171 228.247,-275.986"/>
<ellipse fill="none" stroke="#829505" cx="228.561" cy="-298.28" rx="4" ry="4"/>
<polygon fill="#829505" stroke="#829505" points="228.241,-275.587 232.6,-265.525 228.171,-270.588 228.1,-265.588 228.1,-265.588 228.1,-265.588 228.171,-270.588 223.601,-265.652 228.241,-275.587 228.241,-275.587"/>
</g>
<!-- Show&#45;&gt;Episode -->
<g id="edge6" class="edge"><title>Show&#45;&gt;Episode</title>
<path fill="none" stroke="#a3cc54" d="M190.799,-429.048C179.575,-417.333 169.418,-403.801 163.212,-389 148.259,-353.341 152.311,-339.098 163.212,-302 165.919,-292.786 169.773,-283.618 174.263,-274.788"/>
<ellipse fill="none" stroke="#a3cc54" cx="193.924" cy="-432.177" rx="4.00002" ry="4.00002"/>
<polygon fill="#a3cc54" stroke="#a3cc54" points="174.407,-274.522 183.113,-267.855 176.779,-270.12 179.152,-265.719 179.152,-265.719 179.152,-265.719 176.779,-270.12 175.191,-263.584 174.407,-274.522 174.407,-274.522"/>
</g>
<!-- Show&#45;&gt;Season -->
<g id="edge5" class="edge"><title>Show&#45;&gt;Season</title>
<path fill="none" stroke="#66b2f8" d="M240.832,-417.331C239.817,-411.142 238.787,-404.867 237.782,-398.74"/>
<ellipse fill="none" stroke="#66b2f8" cx="241.505" cy="-421.431" rx="4.00001" ry="4.00001"/>
<polygon fill="#66b2f8" stroke="#66b2f8" points="237.74,-398.48 240.561,-387.883 236.93,-393.545 236.121,-388.611 236.121,-388.611 236.121,-388.611 236.93,-393.545 231.68,-389.34 237.74,-398.48 237.74,-398.48"/>
</g>
<!-- Show&#45;&gt;Viewed -->
<g id="edge7" class="edge"><title>Show&#45;&gt;Viewed</title>
<path fill="none" stroke="#c6c975" d="M284.235,-417.93C288.628,-408.538 292.525,-398.694 295.212,-389 321.451,-294.324 321.497,-179.147 318.388,-110.768"/>
<ellipse fill="none" stroke="#c6c975" cx="282.37" cy="-421.757" rx="4.00002" ry="4.00002"/>
<polygon fill="#c6c975" stroke="#c6c975" points="318.38,-110.604 322.381,-100.395 318.133,-105.61 317.887,-100.617 317.887,-100.617 317.887,-100.617 318.133,-105.61 313.392,-100.838 318.38,-110.604 318.38,-110.604"/>
</g>
</g>
</svg>
