<?xml version="1.0" encoding="UTF-8" standalone="no"?>
<!DOCTYPE svg PUBLIC "-//W3C//DTD SVG 1.1//EN"
 "http://www.w3.org/Graphics/SVG/1.1/DTD/svg11.dtd">
<!-- Generated by graphviz version 2.38.0 (20140413.2041)
 -->
<!-- Title: models_diagram Pages: 1 -->
<svg width="308pt" height="369pt"
 viewBox="0.00 0.00 308.29 369.00" xmlns="http://www.w3.org/2000/svg" xmlns:xlink="http://www.w3.org/1999/xlink">
<g id="graph0" class="graph" transform="scale(1 1) rotate(0) translate(4 365)">
<title>models_diagram</title>
<polygon fill="white" stroke="none" points="-4,4 -4,-365 304.294,-365 304.294,4 -4,4"/>
<!-- _diagram_info -->
<g id="node1" class="node"><title>_diagram_info</title>
<text text-anchor="start" x="8" y="-346.6" font-family="Times,serif" font-size="13.00">Models diagram</text>
<text text-anchor="start" x="8" y="-333.6" font-family="Times,serif" font-size="13.00">Date: Feb 11 2015 &#45; 15:32</text>
<text text-anchor="start" x="8" y="-320.6" font-family="Times,serif" font-size="13.00">Migration version: 20150211182353</text>
<text text-anchor="start" x="8" y="-307.6" font-family="Times,serif" font-size="13.00">Generated by RailRoady 1.3.0</text>
<text text-anchor="start" x="8" y="-294.6" font-family="Times,serif" font-size="13.00">http://railroady.prestonlee.com</text>
</g>
<!-- Episode -->
<g id="node2" class="node"><title>Episode</title>
<ellipse fill="none" stroke="black" cx="196.212" cy="-90" rx="38.6955" ry="18"/>
<text text-anchor="middle" x="196.212" y="-85.8" font-family="Times,serif" font-size="14.00">Episode</text>
</g>
<!-- Viewed -->
<g id="node6" class="node"><title>Viewed</title>
<ellipse fill="none" stroke="black" cx="263.212" cy="-18" rx="37.1641" ry="18"/>
<text text-anchor="middle" x="263.212" y="-13.8" font-family="Times,serif" font-size="14.00">Viewed</text>
</g>
<!-- Episode&#45;&gt;Viewed -->
<g id="edge1" class="edge"><title>Episode&#45;&gt;Viewed</title>
<path fill="none" stroke="#cb5ec7" d="M217.083,-67.1941C224.606,-59.3342 233.125,-50.4344 240.776,-42.4407"/>
<ellipse fill="none" stroke="#cb5ec7" cx="214.181" cy="-70.2262" rx="4.00002" ry="4.00002"/>
<polygon fill="#cb5ec7" stroke="#cb5ec7" points="241.154,-42.0454 251.319,-37.9328 244.611,-38.4333 248.068,-34.8212 248.068,-34.8212 248.068,-34.8212 244.611,-38.4333 244.818,-31.7097 241.154,-42.0454 241.154,-42.0454"/>
</g>
<!-- List -->
<g id="node3" class="node"><title>List</title>
<ellipse fill="none" stroke="black" cx="251.212" cy="-324.5" rx="27" ry="18"/>
<text text-anchor="middle" x="251.212" y="-320.3" font-family="Times,serif" font-size="14.00">List</text>
</g>
<!-- Show -->
<g id="node5" class="node"><title>Show</title>
<ellipse fill="none" stroke="black" cx="221.212" cy="-234" rx="30.0121" ry="18"/>
<text text-anchor="middle" x="221.212" y="-229.8" font-family="Times,serif" font-size="14.00">Show</text>
</g>
<!-- List&#45;&gt;Show -->
<g id="edge2" class="edge"><title>List&#45;&gt;Show</title>
<path fill="none" stroke="#71cc58" d="M242.329,-297.295C238.515,-286.046 234.066,-272.919 230.237,-261.624"/>
<polygon fill="#71cc58" stroke="#71cc58" points="242.358,-297.383 241.307,-308.299 243.964,-302.118 245.569,-306.854 245.569,-306.854 245.569,-306.854 243.964,-302.118 249.831,-305.409 242.358,-297.383 242.358,-297.383"/>
<polygon fill="#71cc58" stroke="#71cc58" points="230.142,-261.343 231.193,-250.428 228.536,-256.608 226.931,-251.872 226.931,-251.872 226.931,-251.872 228.536,-256.608 222.669,-253.317 230.142,-261.343 230.142,-261.343"/>
</g>
<!-- List&#45;&gt;Viewed -->
<g id="edge3" class="edge"><title>List&#45;&gt;Viewed</title>
<path fill="none" stroke="#95fd3d" d="M256.422,-298.339C265.13,-253.051 280.956,-154.815 273.212,-72 272.415,-63.4781 270.912,-54.2849 269.309,-45.9862"/>
<ellipse fill="none" stroke="#95fd3d" cx="255.607" cy="-302.492" rx="4.00001" ry="4.00001"/>
<polygon fill="#95fd3d" stroke="#95fd3d" points="269.284,-45.866 271.679,-35.1647 268.278,-40.9684 267.271,-36.0708 267.271,-36.0708 267.271,-36.0708 268.278,-40.9684 262.863,-36.977 269.284,-45.866 269.284,-45.866"/>
</g>
<!-- Season -->
<g id="node4" class="node"><title>Season</title>
<ellipse fill="none" stroke="black" cx="200.212" cy="-162" rx="35.3216" ry="18"/>
<text text-anchor="middle" x="200.212" y="-157.8" font-family="Times,serif" font-size="14.00">Season</text>
</g>
<!-- Season&#45;&gt;Episode -->
<g id="edge4" class="edge"><title>Season&#45;&gt;Episode</title>
<path fill="none" stroke="#f8f90f" d="M198.763,-135.64C198.444,-130.063 198.105,-124.132 197.782,-118.476"/>
<ellipse fill="none" stroke="#f8f90f" cx="198.995" cy="-139.703" rx="4" ry="4"/>
<polygon fill="#f8f90f" stroke="#f8f90f" points="197.76,-118.088 201.682,-107.848 197.474,-113.096 197.189,-108.104 197.189,-108.104 197.189,-108.104 197.474,-113.096 192.696,-108.361 197.76,-118.088 197.76,-118.088"/>
</g>
<!-- Show&#45;&gt;Episode -->
<g id="edge6" class="edge"><title>Show&#45;&gt;Episode</title>
<path fill="none" stroke="#092f2d" d="M192.039,-217.398C178.475,-208.43 163.712,-195.793 156.212,-180 149.348,-165.547 151.129,-159.171 156.212,-144 159.819,-133.231 166.574,-122.902 173.519,-114.269"/>
<ellipse fill="none" stroke="#092f2d" cx="195.589" cy="-219.625" rx="4.00002" ry="4.00002"/>
<polygon fill="#092f2d" stroke="#092f2d" points="173.628,-114.141 183.555,-109.482 176.884,-110.347 180.14,-106.552 180.14,-106.552 180.14,-106.552 176.884,-110.347 176.725,-103.622 173.628,-114.141 173.628,-114.141"/>
</g>
<!-- Show&#45;&gt;Season -->
<g id="edge5" class="edge"><title>Show&#45;&gt;Season</title>
<path fill="none" stroke="#407634" d="M213.792,-208.267C212.014,-202.34 210.106,-195.981 208.299,-189.959"/>
<ellipse fill="none" stroke="#407634" cx="214.979" cy="-212.224" rx="4.00001" ry="4.00001"/>
<polygon fill="#407634" stroke="#407634" points="208.268,-189.854 209.704,-178.982 206.831,-185.064 205.394,-180.275 205.394,-180.275 205.394,-180.275 206.831,-185.064 201.084,-181.568 208.268,-189.854 208.268,-189.854"/>
</g>
<!-- Show&#45;&gt;Viewed -->
<g id="edge7" class="edge"><title>Show&#45;&gt;Viewed</title>
<path fill="none" stroke="#63d92c" d="M233.449,-208.877C237.474,-200.002 241.585,-189.737 244.212,-180 256.592,-134.101 260.906,-78.6824 262.409,-46.287"/>
<ellipse fill="none" stroke="#63d92c" cx="231.676" cy="-212.65" rx="4.00002" ry="4.00002"/>
<polygon fill="#63d92c" stroke="#63d92c" points="262.412,-46.2221 267.315,-36.4135 262.615,-41.2262 262.819,-36.2304 262.819,-36.2304 262.819,-36.2304 262.615,-41.2262 258.323,-36.0472 262.412,-46.2221 262.412,-46.2221"/>
</g>
</g>
</svg>
